EMG
version=1
nRows=13
nColumns=17
inDegrees=no
endheader
time	EMG01_right_gast_med	EMG02_right_glut_max	EMG03_left_gast_med	EMG04_left_glut_max	EMG05_right_glut_med	EMG06_right_bic_fem	EMG07_right_rect_fem	EMG08_right_vast_lat	EMG09_right_vast_med	EMG10_right_tens_fasc_lat	EMG11_left_glut_med	EMG12_left_bic_fem	EMG13_left_rect_fem	EMG14_left_vast_lat	EMG15_left_vast_med	EMG16_left_tens_fasc_lat
      0.00000000	    -41.67678833	   -344.00128174	    -22.01843834	   -136.07595825	   -189.60052490	    -58.40044403	     18.82975578	    -55.00865936	    -28.43590546	   -132.33692932	     -1.21906281	     -3.16215777	     45.48245239	     -7.20764923	     44.51029968	    120.79524231
      0.01000000	    -11.34272480	   -276.97930908	     26.89616776	   -126.95013428	   -124.86767578	    -31.74691772	      7.06519890	    -34.15978241	      0.98944062	   -103.45114136	    -15.05228233	     -4.99599314	     56.91115570	     -8.55517769	     57.43571472	    187.23370361
      0.02000000	     13.30384159	    -93.03343201	     42.05654907	    -86.05392456	   -210.02267456	      3.99486351	      1.60094333	    -38.08361435	      4.86101675	     69.04679108	    -12.49553680	     -9.99086189	     16.03152275	     -5.72585011	    105.44820404	    243.65437317
      0.03000000	     25.35529327	     39.41209030	    139.70043945	    -71.42517853	   -197.68174744	     10.29733849	      4.20254278	    -38.84510040	     -6.12198877	    121.81943512	    -11.99531555	     -8.34463120	     15.09106922	     -5.52588034	     44.93489838	    185.67237854
      0.04000000	     27.57702255	    119.43080902	    -38.04554749	    -63.48046494	    -75.29708862	     10.23843479	      0.66276813	    -46.64413834	      6.52144241	     56.49782944	     -9.20645714	     -4.18722916	     13.83870602	     15.96118164	     -9.00472164	    190.03472900
      0.05000000	      8.15735245	     94.61131287	   -144.12882996	     16.53156853	     60.53324127	     23.58118439	     -1.99866164	    -34.49637604	     20.90854263	    145.49206543	    -12.96033573	    -10.13276100	     12.13917732	      6.70096254	    -24.76641083	    258.99774170
      0.06000000	     15.41953659	    136.50515747	     -5.44564247	    118.35762024	    134.05273438	     -3.67542410	      1.37711573	    -12.65228939	     -1.78291178	     25.54407310	      4.49461794	     -2.40397644	     -6.81006527	      6.21670580	    -17.09877586	    330.07568359
      0.07000000	     15.26479244	    117.40200806	    -36.55120087	    190.69155884	     89.88111115	     19.84120560	     -6.12828541	    -11.45483112	     14.04531670	   -248.49983215	     -8.79579353	      0.68770146	     18.60509872	    -10.64916706	     -4.26408958	    233.66438293
      0.08000000	     19.83947754	     87.07916260	      6.51138783	    220.82000732	    -31.36135864	     21.47268105	     -4.35611534	     -4.30674934	      8.51081467	   -203.89892578	     -4.88213730	      1.93395770	     -2.94180107	     -5.87250757	     10.31262112	    -48.34197617
      0.09000000	      3.77373147	    134.80354309	     17.10703278	    209.70321655	    -95.85152435	     11.81097603	     -7.98302078	     -3.85399222	      4.60753489	     32.48984528	    -15.56937218	     -3.57336712	     12.66623020	    -12.52663326	    -19.43511772	   -251.90550232
      0.10000000	    -30.24632645	    180.05700684	     23.66531944	    150.60299683	    -54.95201492	    -30.02603722	    -10.41575336	     -2.55225611	     -7.37946129	    162.09875488	      9.07538319	     -5.12657166	     19.58081436	      4.58465576	    -34.31810760	   -271.23443604
      0.11000000	    -20.25473022	    173.70776367	     -0.10393572	     62.33390427	     20.07717705	     -3.29901218	    -10.72705269	     -0.53385764	     -5.75333929	    149.20056152	      0.23931301	    -10.58192062	      7.37063313	     -3.10678935	    -45.53735352	   -223.55009460
      0.12000000	      8.18238735	    125.25259399	     27.91489792	    -25.57523537	     20.20475197	    -12.41212368	     -1.71148252	      2.51346302	     -9.16498184	    137.96830750	     -4.25790501	      1.92284167	      8.17981148	     -3.20074749	    -21.09436798	   -170.34677124
